<svg
        xmlns="http://www.w3.org/2000/svg" width="112" height="20">
    <linearGradient id="b" x2="0" y2="100%">
        <stop offset="0" stop-color="#bbb" stop-opacity=".1"/>
        <stop offset="1" stop-opacity=".1"/>
    </linearGradient>
    <mask id="a">
        <rect width="112" height="20" rx="3" fill="#fff"/>
    </mask>
    <g mask="url(#a)">
        <path fill="#555" d="M0 0h76v20H0z"/>
        <path fill="#F6CB90" d="M76 0h36v20H76z"/>
        <path fill="url(#b)" d="M0 0h112v20H0z"/>
    </g>
    <g fill="#fff" text-anchor="middle" font-family="DejaVu Sans,Verdana,Geneva,sans-serif" font-size="11">
        <text x="46" y="15" fill="#010101" fill-opacity=".3">COVID-19</text>
        <text x="46" y="14">COVID-19</text>
        <text x="93" y="15" fill="#010101" fill-opacity=".3">C-19</text>
        <text x="93" y="14">C-19</text>
    </g>
    <g xmlns="http://www.w3.org/2000/svg" fill="#fff" transform="translate(0,0.7)">
        <path d="M7.41141,8.86628A3.96487,3.96487,0,0,1,9.25305,6.46449L8.4039,4.99788A5.66287,5.66287,0,0,0,5.7725,8.42876Z"/>
        <path d="M10.20919,6.06776a3.97645,3.97645,0,0,1,1.02188-.1335l-.00163-1.695a5.66515,5.66515,0,0,0-1.46081.19105Z"/>
        <path d="M12.26155,6.06746a3.964,3.964,0,0,1,2.39894,1.83989L16.129,7.05811a5.66477,5.66477,0,0,0-3.42985-2.62775Z"/>
        <path d="M5.58233,9.89359a5.65418,5.65418,0,0,0,.192,1.46025l1.63816-.43995A3.93459,3.93459,0,0,1,7.27811,9.892l-1.69578.00163Z"/>
        <path d="M6.34169,12.71846a5.66441,5.66441,0,0,0,.89779,1.16644L8.439,12.6859a4.02322,4.02322,0,0,1-.62965-.81668Z"/>
        <path d="M8.41333,14.784a5.6201,5.6201,0,0,0,2.82239.75325l-.00162-1.695a3.93741,3.93741,0,0,1-1.97448-.52729Z"/>
        <path d="M14.66242,11.86693a3.96384,3.96384,0,0,1-2.399,1.84057l.44059,1.63755a5.66624,5.66624,0,0,0,3.42774-2.63189Z"/>
        <path d="M16.69744,11.40093a5.66,5.66,0,0,0,.01008-2.93013l-1.64308.44052a3.95261,3.95261,0,0,1-.009,2.05141Z"/>
    </g>
</svg>